G04 #@! TF.FileFunction,Copper,L2,Bot,Signal*
%FSLAX46Y46*%
G04 Gerber Fmt 4.6, Leading zero omitted, Abs format (unit mm)*
G04 Created by KiCad (PCBNEW 4.0.2+dfsg1-stable) date dom 10 sep 2017 20:45:57 CEST*
%MOMM*%
G01*
G04 APERTURE LIST*
%ADD10C,0.100000*%
%ADD11R,2.000000X1.900000*%
%ADD12C,1.900000*%
%ADD13C,1.500000*%
%ADD14R,1.500000X1.500000*%
%ADD15R,1.727200X2.032000*%
%ADD16O,1.727200X2.032000*%
%ADD17C,3.500000*%
%ADD18C,0.400000*%
%ADD19C,0.254000*%
G04 APERTURE END LIST*
D10*
D11*
X176530000Y-87630000D03*
D12*
X176530000Y-90170000D03*
D13*
X153670000Y-96520000D03*
D14*
X163830000Y-96520000D03*
D13*
X161290000Y-96520000D03*
X156210000Y-96520000D03*
X158750000Y-96520000D03*
X146050000Y-96520000D03*
D14*
X135890000Y-96520000D03*
D13*
X138430000Y-96520000D03*
X143510000Y-96520000D03*
X140970000Y-96520000D03*
D11*
X168910000Y-87630000D03*
D12*
X168910000Y-90170000D03*
D11*
X161290000Y-87630000D03*
D12*
X161290000Y-90170000D03*
D11*
X153670000Y-87630000D03*
D12*
X153670000Y-90170000D03*
D11*
X146050000Y-87630000D03*
D12*
X146050000Y-90170000D03*
D11*
X138430000Y-87630000D03*
D12*
X138430000Y-90170000D03*
D11*
X123190000Y-87630000D03*
D12*
X123190000Y-90170000D03*
D11*
X130810000Y-87630000D03*
D12*
X130810000Y-90170000D03*
D15*
X160020000Y-101600000D03*
D16*
X157480000Y-101600000D03*
X154940000Y-101600000D03*
X152400000Y-101600000D03*
X149860000Y-101600000D03*
X147320000Y-101600000D03*
X144780000Y-101600000D03*
X142240000Y-101600000D03*
X139700000Y-101600000D03*
D17*
X171450000Y-97790000D03*
X128270000Y-97790000D03*
D18*
X138430000Y-96520000D02*
X138430000Y-95250000D01*
X124460000Y-87630000D02*
X123190000Y-87630000D01*
X129540000Y-92710000D02*
X124460000Y-87630000D01*
X135890000Y-92710000D02*
X129540000Y-92710000D01*
X138430000Y-95250000D02*
X135890000Y-92710000D01*
X144780000Y-101600000D02*
X144780000Y-99060000D01*
X138430000Y-91440000D02*
X138430000Y-90170000D01*
X140970000Y-93980000D02*
X138430000Y-91440000D01*
X148590000Y-93980000D02*
X140970000Y-93980000D01*
X148590000Y-97790000D02*
X148590000Y-93980000D01*
X146050000Y-97790000D02*
X148590000Y-97790000D01*
X144780000Y-99060000D02*
X146050000Y-97790000D01*
X152400000Y-101600000D02*
X152400000Y-99060000D01*
X156210000Y-90170000D02*
X161290000Y-90170000D01*
X151130000Y-95250000D02*
X156210000Y-90170000D01*
X151130000Y-99060000D02*
X151130000Y-95250000D01*
X152400000Y-99060000D02*
X151130000Y-99060000D01*
X154940000Y-101600000D02*
X154940000Y-100330000D01*
X168910000Y-95250000D02*
X168910000Y-90170000D01*
X166370000Y-97790000D02*
X168910000Y-95250000D01*
X157480000Y-97790000D02*
X166370000Y-97790000D01*
X154940000Y-100330000D02*
X157480000Y-97790000D01*
X157480000Y-101600000D02*
X157480000Y-100330000D01*
X173990000Y-92710000D02*
X176530000Y-90170000D01*
X172720000Y-92710000D02*
X173990000Y-92710000D01*
X166370000Y-99060000D02*
X172720000Y-92710000D01*
X158750000Y-99060000D02*
X166370000Y-99060000D01*
X157480000Y-100330000D02*
X158750000Y-99060000D01*
D19*
G36*
X180944780Y-86455746D02*
X183099334Y-88695949D01*
X183099334Y-91672495D01*
X181205749Y-93950738D01*
X168283140Y-103096781D01*
X164441851Y-104318600D01*
X134654266Y-104318600D01*
X130819668Y-103101520D01*
X123964318Y-98262325D01*
X125884587Y-98262325D01*
X126246916Y-99139229D01*
X126917242Y-99810726D01*
X127793513Y-100174585D01*
X128742325Y-100175413D01*
X129619229Y-99813084D01*
X130290726Y-99142758D01*
X130654585Y-98266487D01*
X130655413Y-97317675D01*
X130443891Y-96805750D01*
X134505000Y-96805750D01*
X134505000Y-97396310D01*
X134601673Y-97629699D01*
X134780302Y-97808327D01*
X135013691Y-97905000D01*
X135604250Y-97905000D01*
X135763000Y-97746250D01*
X135763000Y-96647000D01*
X134663750Y-96647000D01*
X134505000Y-96805750D01*
X130443891Y-96805750D01*
X130293084Y-96440771D01*
X129622758Y-95769274D01*
X129320318Y-95643690D01*
X134505000Y-95643690D01*
X134505000Y-96234250D01*
X134663750Y-96393000D01*
X135763000Y-96393000D01*
X135763000Y-95293750D01*
X135604250Y-95135000D01*
X135013691Y-95135000D01*
X134780302Y-95231673D01*
X134601673Y-95410301D01*
X134505000Y-95643690D01*
X129320318Y-95643690D01*
X128746487Y-95405415D01*
X127797675Y-95404587D01*
X126920771Y-95766916D01*
X126249274Y-96437242D01*
X125885415Y-97313513D01*
X125884587Y-98262325D01*
X123964318Y-98262325D01*
X117881444Y-93968422D01*
X115952829Y-91721162D01*
X115952829Y-88738626D01*
X117814785Y-86680000D01*
X121542560Y-86680000D01*
X121542560Y-88580000D01*
X121586838Y-88815317D01*
X121725910Y-89031441D01*
X121938110Y-89176431D01*
X121941192Y-89177055D01*
X121847086Y-89270997D01*
X121605276Y-89853341D01*
X121604725Y-90483893D01*
X121845519Y-91066657D01*
X122290997Y-91512914D01*
X122873341Y-91754724D01*
X123503893Y-91755275D01*
X124086657Y-91514481D01*
X124532914Y-91069003D01*
X124774724Y-90486659D01*
X124775275Y-89856107D01*
X124534481Y-89273343D01*
X124436971Y-89175663D01*
X124641441Y-89044090D01*
X124662460Y-89013328D01*
X128949566Y-93300434D01*
X129220459Y-93481439D01*
X129540000Y-93545000D01*
X135544132Y-93545000D01*
X137495261Y-95496129D01*
X137275000Y-95716007D01*
X137275000Y-95643690D01*
X137178327Y-95410301D01*
X136999698Y-95231673D01*
X136766309Y-95135000D01*
X136175750Y-95135000D01*
X136017000Y-95293750D01*
X136017000Y-96393000D01*
X136037000Y-96393000D01*
X136037000Y-96647000D01*
X136017000Y-96647000D01*
X136017000Y-97746250D01*
X136175750Y-97905000D01*
X136766309Y-97905000D01*
X136999698Y-97808327D01*
X137178327Y-97629699D01*
X137275000Y-97396310D01*
X137275000Y-97323381D01*
X137644436Y-97693461D01*
X138153298Y-97904759D01*
X138704285Y-97905240D01*
X139213515Y-97694831D01*
X139603461Y-97305564D01*
X139699976Y-97073130D01*
X139795169Y-97303515D01*
X140184436Y-97693461D01*
X140693298Y-97904759D01*
X141244285Y-97905240D01*
X141753515Y-97694831D01*
X142143461Y-97305564D01*
X142239976Y-97073130D01*
X142335169Y-97303515D01*
X142724436Y-97693461D01*
X143233298Y-97904759D01*
X143784285Y-97905240D01*
X144293515Y-97694831D01*
X144683461Y-97305564D01*
X144779976Y-97073130D01*
X144875169Y-97303515D01*
X145115184Y-97543948D01*
X144189566Y-98469566D01*
X144008561Y-98740459D01*
X143945000Y-99060000D01*
X143945000Y-100205465D01*
X143720330Y-100355585D01*
X143510000Y-100670366D01*
X143299670Y-100355585D01*
X142813489Y-100030729D01*
X142240000Y-99916655D01*
X141666511Y-100030729D01*
X141180330Y-100355585D01*
X140970000Y-100670366D01*
X140759670Y-100355585D01*
X140273489Y-100030729D01*
X139700000Y-99916655D01*
X139126511Y-100030729D01*
X138640330Y-100355585D01*
X138315474Y-100841766D01*
X138201400Y-101415255D01*
X138201400Y-101784745D01*
X138315474Y-102358234D01*
X138640330Y-102844415D01*
X139126511Y-103169271D01*
X139700000Y-103283345D01*
X140273489Y-103169271D01*
X140759670Y-102844415D01*
X140970000Y-102529634D01*
X141180330Y-102844415D01*
X141666511Y-103169271D01*
X142240000Y-103283345D01*
X142813489Y-103169271D01*
X143299670Y-102844415D01*
X143510000Y-102529634D01*
X143720330Y-102844415D01*
X144206511Y-103169271D01*
X144780000Y-103283345D01*
X145353489Y-103169271D01*
X145839670Y-102844415D01*
X146050000Y-102529634D01*
X146260330Y-102844415D01*
X146746511Y-103169271D01*
X147320000Y-103283345D01*
X147893489Y-103169271D01*
X148379670Y-102844415D01*
X148590000Y-102529634D01*
X148800330Y-102844415D01*
X149286511Y-103169271D01*
X149860000Y-103283345D01*
X150433489Y-103169271D01*
X150919670Y-102844415D01*
X151130000Y-102529634D01*
X151340330Y-102844415D01*
X151826511Y-103169271D01*
X152400000Y-103283345D01*
X152973489Y-103169271D01*
X153459670Y-102844415D01*
X153670000Y-102529634D01*
X153880330Y-102844415D01*
X154366511Y-103169271D01*
X154940000Y-103283345D01*
X155513489Y-103169271D01*
X155999670Y-102844415D01*
X156210000Y-102529634D01*
X156420330Y-102844415D01*
X156906511Y-103169271D01*
X157480000Y-103283345D01*
X158053489Y-103169271D01*
X158539670Y-102844415D01*
X158554500Y-102822220D01*
X158618073Y-102975698D01*
X158796701Y-103154327D01*
X159030090Y-103251000D01*
X159734250Y-103251000D01*
X159893000Y-103092250D01*
X159893000Y-101727000D01*
X160147000Y-101727000D01*
X160147000Y-103092250D01*
X160305750Y-103251000D01*
X161009910Y-103251000D01*
X161243299Y-103154327D01*
X161421927Y-102975698D01*
X161518600Y-102742309D01*
X161518600Y-101885750D01*
X161359850Y-101727000D01*
X160147000Y-101727000D01*
X159893000Y-101727000D01*
X159873000Y-101727000D01*
X159873000Y-101473000D01*
X159893000Y-101473000D01*
X159893000Y-100107750D01*
X160147000Y-100107750D01*
X160147000Y-101473000D01*
X161359850Y-101473000D01*
X161518600Y-101314250D01*
X161518600Y-100457691D01*
X161421927Y-100224302D01*
X161243299Y-100045673D01*
X161009910Y-99949000D01*
X160305750Y-99949000D01*
X160147000Y-100107750D01*
X159893000Y-100107750D01*
X159734250Y-99949000D01*
X159041868Y-99949000D01*
X159095868Y-99895000D01*
X166370000Y-99895000D01*
X166689541Y-99831439D01*
X166960434Y-99650434D01*
X169065212Y-97545656D01*
X169064587Y-98262325D01*
X169426916Y-99139229D01*
X170097242Y-99810726D01*
X170973513Y-100174585D01*
X171922325Y-100175413D01*
X172799229Y-99813084D01*
X173470726Y-99142758D01*
X173834585Y-98266487D01*
X173835413Y-97317675D01*
X173473084Y-96440771D01*
X172802758Y-95769274D01*
X171926487Y-95405415D01*
X171206082Y-95404786D01*
X173065868Y-93545000D01*
X173990000Y-93545000D01*
X174309541Y-93481439D01*
X174580434Y-93300434D01*
X176151728Y-91729140D01*
X176213341Y-91754724D01*
X176843893Y-91755275D01*
X177426657Y-91514481D01*
X177872914Y-91069003D01*
X178114724Y-90486659D01*
X178115275Y-89856107D01*
X177874481Y-89273343D01*
X177776971Y-89175663D01*
X177981441Y-89044090D01*
X178126431Y-88831890D01*
X178177440Y-88580000D01*
X178177440Y-86680000D01*
X178133162Y-86444683D01*
X177994090Y-86228559D01*
X177781890Y-86083569D01*
X177530000Y-86032560D01*
X175530000Y-86032560D01*
X175294683Y-86076838D01*
X175078559Y-86215910D01*
X174933569Y-86428110D01*
X174882560Y-86680000D01*
X174882560Y-88580000D01*
X174926838Y-88815317D01*
X175065910Y-89031441D01*
X175278110Y-89176431D01*
X175281192Y-89177055D01*
X175187086Y-89270997D01*
X174945276Y-89853341D01*
X174944725Y-90483893D01*
X174971190Y-90547942D01*
X173644132Y-91875000D01*
X172720000Y-91875000D01*
X172400459Y-91938561D01*
X172129566Y-92119566D01*
X169745000Y-94504132D01*
X169745000Y-91539957D01*
X169806657Y-91514481D01*
X170252914Y-91069003D01*
X170494724Y-90486659D01*
X170495275Y-89856107D01*
X170254481Y-89273343D01*
X170156971Y-89175663D01*
X170361441Y-89044090D01*
X170506431Y-88831890D01*
X170557440Y-88580000D01*
X170557440Y-86680000D01*
X170513162Y-86444683D01*
X170374090Y-86228559D01*
X170161890Y-86083569D01*
X169910000Y-86032560D01*
X167910000Y-86032560D01*
X167674683Y-86076838D01*
X167458559Y-86215910D01*
X167313569Y-86428110D01*
X167262560Y-86680000D01*
X167262560Y-88580000D01*
X167306838Y-88815317D01*
X167445910Y-89031441D01*
X167658110Y-89176431D01*
X167661192Y-89177055D01*
X167567086Y-89270997D01*
X167325276Y-89853341D01*
X167324725Y-90483893D01*
X167565519Y-91066657D01*
X168010997Y-91512914D01*
X168075000Y-91539490D01*
X168075000Y-94904132D01*
X166024132Y-96955000D01*
X165215000Y-96955000D01*
X165215000Y-96805750D01*
X165056250Y-96647000D01*
X163957000Y-96647000D01*
X163957000Y-96667000D01*
X163703000Y-96667000D01*
X163703000Y-96647000D01*
X163683000Y-96647000D01*
X163683000Y-96393000D01*
X163703000Y-96393000D01*
X163703000Y-95293750D01*
X163957000Y-95293750D01*
X163957000Y-96393000D01*
X165056250Y-96393000D01*
X165215000Y-96234250D01*
X165215000Y-95643690D01*
X165118327Y-95410301D01*
X164939698Y-95231673D01*
X164706309Y-95135000D01*
X164115750Y-95135000D01*
X163957000Y-95293750D01*
X163703000Y-95293750D01*
X163544250Y-95135000D01*
X162953691Y-95135000D01*
X162720302Y-95231673D01*
X162541673Y-95410301D01*
X162445000Y-95643690D01*
X162445000Y-95716619D01*
X162075564Y-95346539D01*
X161566702Y-95135241D01*
X161015715Y-95134760D01*
X160506485Y-95345169D01*
X160116539Y-95734436D01*
X160020024Y-95966870D01*
X159924831Y-95736485D01*
X159535564Y-95346539D01*
X159026702Y-95135241D01*
X158475715Y-95134760D01*
X157966485Y-95345169D01*
X157576539Y-95734436D01*
X157480024Y-95966870D01*
X157384831Y-95736485D01*
X156995564Y-95346539D01*
X156486702Y-95135241D01*
X155935715Y-95134760D01*
X155426485Y-95345169D01*
X155036539Y-95734436D01*
X154940024Y-95966870D01*
X154844831Y-95736485D01*
X154455564Y-95346539D01*
X153946702Y-95135241D01*
X153395715Y-95134760D01*
X152886485Y-95345169D01*
X152496539Y-95734436D01*
X152285241Y-96243298D01*
X152284760Y-96794285D01*
X152495169Y-97303515D01*
X152884436Y-97693461D01*
X153393298Y-97904759D01*
X153944285Y-97905240D01*
X154453515Y-97694831D01*
X154843461Y-97305564D01*
X154939976Y-97073130D01*
X155035169Y-97303515D01*
X155424436Y-97693461D01*
X155933298Y-97904759D01*
X156184154Y-97904978D01*
X154349566Y-99739566D01*
X154168561Y-100010459D01*
X154133569Y-100186376D01*
X153880330Y-100355585D01*
X153670000Y-100670366D01*
X153459670Y-100355585D01*
X153235000Y-100205465D01*
X153235000Y-99060000D01*
X153171439Y-98740459D01*
X152990434Y-98469566D01*
X152719541Y-98288561D01*
X152400000Y-98225000D01*
X151965000Y-98225000D01*
X151965000Y-95595868D01*
X156555868Y-91005000D01*
X159920043Y-91005000D01*
X159945519Y-91066657D01*
X160390997Y-91512914D01*
X160973341Y-91754724D01*
X161603893Y-91755275D01*
X162186657Y-91514481D01*
X162632914Y-91069003D01*
X162874724Y-90486659D01*
X162875275Y-89856107D01*
X162634481Y-89273343D01*
X162536971Y-89175663D01*
X162741441Y-89044090D01*
X162886431Y-88831890D01*
X162937440Y-88580000D01*
X162937440Y-86680000D01*
X162893162Y-86444683D01*
X162754090Y-86228559D01*
X162541890Y-86083569D01*
X162290000Y-86032560D01*
X160290000Y-86032560D01*
X160054683Y-86076838D01*
X159838559Y-86215910D01*
X159693569Y-86428110D01*
X159642560Y-86680000D01*
X159642560Y-88580000D01*
X159686838Y-88815317D01*
X159825910Y-89031441D01*
X160038110Y-89176431D01*
X160041192Y-89177055D01*
X159947086Y-89270997D01*
X159920510Y-89335000D01*
X156210000Y-89335000D01*
X155890459Y-89398561D01*
X155619566Y-89579566D01*
X155255198Y-89943934D01*
X155255275Y-89856107D01*
X155014481Y-89273343D01*
X154916971Y-89175663D01*
X155121441Y-89044090D01*
X155266431Y-88831890D01*
X155317440Y-88580000D01*
X155317440Y-86680000D01*
X155273162Y-86444683D01*
X155134090Y-86228559D01*
X154921890Y-86083569D01*
X154670000Y-86032560D01*
X152670000Y-86032560D01*
X152434683Y-86076838D01*
X152218559Y-86215910D01*
X152073569Y-86428110D01*
X152022560Y-86680000D01*
X152022560Y-88580000D01*
X152066838Y-88815317D01*
X152205910Y-89031441D01*
X152418110Y-89176431D01*
X152421192Y-89177055D01*
X152327086Y-89270997D01*
X152085276Y-89853341D01*
X152084725Y-90483893D01*
X152325519Y-91066657D01*
X152770997Y-91512914D01*
X153353341Y-91754724D01*
X153444328Y-91754804D01*
X150539566Y-94659566D01*
X150358561Y-94930459D01*
X150295000Y-95250000D01*
X150295000Y-99060000D01*
X150358561Y-99379541D01*
X150539566Y-99650434D01*
X150810459Y-99831439D01*
X151130000Y-99895000D01*
X151565000Y-99895000D01*
X151565000Y-100205465D01*
X151340330Y-100355585D01*
X151130000Y-100670366D01*
X150919670Y-100355585D01*
X150433489Y-100030729D01*
X149860000Y-99916655D01*
X149286511Y-100030729D01*
X148800330Y-100355585D01*
X148590000Y-100670366D01*
X148379670Y-100355585D01*
X147893489Y-100030729D01*
X147320000Y-99916655D01*
X146746511Y-100030729D01*
X146260330Y-100355585D01*
X146050000Y-100670366D01*
X145839670Y-100355585D01*
X145615000Y-100205465D01*
X145615000Y-99405868D01*
X146395868Y-98625000D01*
X148590000Y-98625000D01*
X148909541Y-98561439D01*
X149180434Y-98380434D01*
X149361439Y-98109541D01*
X149425000Y-97790000D01*
X149425000Y-93980000D01*
X149361439Y-93660459D01*
X149180434Y-93389566D01*
X148909541Y-93208561D01*
X148590000Y-93145000D01*
X141315868Y-93145000D01*
X139506160Y-91335292D01*
X139772914Y-91069003D01*
X140014724Y-90486659D01*
X140015275Y-89856107D01*
X139774481Y-89273343D01*
X139676971Y-89175663D01*
X139881441Y-89044090D01*
X140026431Y-88831890D01*
X140077440Y-88580000D01*
X140077440Y-86680000D01*
X144402560Y-86680000D01*
X144402560Y-88580000D01*
X144446838Y-88815317D01*
X144585910Y-89031441D01*
X144798110Y-89176431D01*
X144801192Y-89177055D01*
X144707086Y-89270997D01*
X144465276Y-89853341D01*
X144464725Y-90483893D01*
X144705519Y-91066657D01*
X145150997Y-91512914D01*
X145733341Y-91754724D01*
X146363893Y-91755275D01*
X146946657Y-91514481D01*
X147392914Y-91069003D01*
X147634724Y-90486659D01*
X147635275Y-89856107D01*
X147394481Y-89273343D01*
X147296971Y-89175663D01*
X147501441Y-89044090D01*
X147646431Y-88831890D01*
X147697440Y-88580000D01*
X147697440Y-86680000D01*
X147653162Y-86444683D01*
X147514090Y-86228559D01*
X147301890Y-86083569D01*
X147050000Y-86032560D01*
X145050000Y-86032560D01*
X144814683Y-86076838D01*
X144598559Y-86215910D01*
X144453569Y-86428110D01*
X144402560Y-86680000D01*
X140077440Y-86680000D01*
X140033162Y-86444683D01*
X139894090Y-86228559D01*
X139681890Y-86083569D01*
X139430000Y-86032560D01*
X137430000Y-86032560D01*
X137194683Y-86076838D01*
X136978559Y-86215910D01*
X136833569Y-86428110D01*
X136782560Y-86680000D01*
X136782560Y-88580000D01*
X136826838Y-88815317D01*
X136965910Y-89031441D01*
X137178110Y-89176431D01*
X137181192Y-89177055D01*
X137087086Y-89270997D01*
X136845276Y-89853341D01*
X136844725Y-90483893D01*
X137085519Y-91066657D01*
X137530997Y-91512914D01*
X137616572Y-91548448D01*
X137658561Y-91759541D01*
X137802392Y-91974799D01*
X137839566Y-92030434D01*
X140379566Y-94570434D01*
X140650459Y-94751439D01*
X140970000Y-94815000D01*
X147755000Y-94815000D01*
X147755000Y-96955000D01*
X147369028Y-96955000D01*
X147434759Y-96796702D01*
X147435240Y-96245715D01*
X147224831Y-95736485D01*
X146835564Y-95346539D01*
X146326702Y-95135241D01*
X145775715Y-95134760D01*
X145266485Y-95345169D01*
X144876539Y-95734436D01*
X144780024Y-95966870D01*
X144684831Y-95736485D01*
X144295564Y-95346539D01*
X143786702Y-95135241D01*
X143235715Y-95134760D01*
X142726485Y-95345169D01*
X142336539Y-95734436D01*
X142240024Y-95966870D01*
X142144831Y-95736485D01*
X141755564Y-95346539D01*
X141246702Y-95135241D01*
X140695715Y-95134760D01*
X140186485Y-95345169D01*
X139796539Y-95734436D01*
X139700024Y-95966870D01*
X139604831Y-95736485D01*
X139265000Y-95396061D01*
X139265000Y-95250000D01*
X139201439Y-94930459D01*
X139020434Y-94659566D01*
X136480434Y-92119566D01*
X136209541Y-91938561D01*
X135890000Y-91875000D01*
X129885868Y-91875000D01*
X125050434Y-87039566D01*
X124837440Y-86897248D01*
X124837440Y-86680000D01*
X129162560Y-86680000D01*
X129162560Y-88580000D01*
X129206838Y-88815317D01*
X129345910Y-89031441D01*
X129558110Y-89176431D01*
X129561192Y-89177055D01*
X129467086Y-89270997D01*
X129225276Y-89853341D01*
X129224725Y-90483893D01*
X129465519Y-91066657D01*
X129910997Y-91512914D01*
X130493341Y-91754724D01*
X131123893Y-91755275D01*
X131706657Y-91514481D01*
X132152914Y-91069003D01*
X132394724Y-90486659D01*
X132395275Y-89856107D01*
X132154481Y-89273343D01*
X132056971Y-89175663D01*
X132261441Y-89044090D01*
X132406431Y-88831890D01*
X132457440Y-88580000D01*
X132457440Y-86680000D01*
X132413162Y-86444683D01*
X132274090Y-86228559D01*
X132061890Y-86083569D01*
X131810000Y-86032560D01*
X129810000Y-86032560D01*
X129574683Y-86076838D01*
X129358559Y-86215910D01*
X129213569Y-86428110D01*
X129162560Y-86680000D01*
X124837440Y-86680000D01*
X124793162Y-86444683D01*
X124654090Y-86228559D01*
X124441890Y-86083569D01*
X124190000Y-86032560D01*
X122190000Y-86032560D01*
X121954683Y-86076838D01*
X121738559Y-86215910D01*
X121593569Y-86428110D01*
X121542560Y-86680000D01*
X117814785Y-86680000D01*
X118036067Y-86435346D01*
X120301692Y-86008461D01*
X178670990Y-86008461D01*
X180944780Y-86455746D01*
X180944780Y-86455746D01*
G37*
X180944780Y-86455746D02*
X183099334Y-88695949D01*
X183099334Y-91672495D01*
X181205749Y-93950738D01*
X168283140Y-103096781D01*
X164441851Y-104318600D01*
X134654266Y-104318600D01*
X130819668Y-103101520D01*
X123964318Y-98262325D01*
X125884587Y-98262325D01*
X126246916Y-99139229D01*
X126917242Y-99810726D01*
X127793513Y-100174585D01*
X128742325Y-100175413D01*
X129619229Y-99813084D01*
X130290726Y-99142758D01*
X130654585Y-98266487D01*
X130655413Y-97317675D01*
X130443891Y-96805750D01*
X134505000Y-96805750D01*
X134505000Y-97396310D01*
X134601673Y-97629699D01*
X134780302Y-97808327D01*
X135013691Y-97905000D01*
X135604250Y-97905000D01*
X135763000Y-97746250D01*
X135763000Y-96647000D01*
X134663750Y-96647000D01*
X134505000Y-96805750D01*
X130443891Y-96805750D01*
X130293084Y-96440771D01*
X129622758Y-95769274D01*
X129320318Y-95643690D01*
X134505000Y-95643690D01*
X134505000Y-96234250D01*
X134663750Y-96393000D01*
X135763000Y-96393000D01*
X135763000Y-95293750D01*
X135604250Y-95135000D01*
X135013691Y-95135000D01*
X134780302Y-95231673D01*
X134601673Y-95410301D01*
X134505000Y-95643690D01*
X129320318Y-95643690D01*
X128746487Y-95405415D01*
X127797675Y-95404587D01*
X126920771Y-95766916D01*
X126249274Y-96437242D01*
X125885415Y-97313513D01*
X125884587Y-98262325D01*
X123964318Y-98262325D01*
X117881444Y-93968422D01*
X115952829Y-91721162D01*
X115952829Y-88738626D01*
X117814785Y-86680000D01*
X121542560Y-86680000D01*
X121542560Y-88580000D01*
X121586838Y-88815317D01*
X121725910Y-89031441D01*
X121938110Y-89176431D01*
X121941192Y-89177055D01*
X121847086Y-89270997D01*
X121605276Y-89853341D01*
X121604725Y-90483893D01*
X121845519Y-91066657D01*
X122290997Y-91512914D01*
X122873341Y-91754724D01*
X123503893Y-91755275D01*
X124086657Y-91514481D01*
X124532914Y-91069003D01*
X124774724Y-90486659D01*
X124775275Y-89856107D01*
X124534481Y-89273343D01*
X124436971Y-89175663D01*
X124641441Y-89044090D01*
X124662460Y-89013328D01*
X128949566Y-93300434D01*
X129220459Y-93481439D01*
X129540000Y-93545000D01*
X135544132Y-93545000D01*
X137495261Y-95496129D01*
X137275000Y-95716007D01*
X137275000Y-95643690D01*
X137178327Y-95410301D01*
X136999698Y-95231673D01*
X136766309Y-95135000D01*
X136175750Y-95135000D01*
X136017000Y-95293750D01*
X136017000Y-96393000D01*
X136037000Y-96393000D01*
X136037000Y-96647000D01*
X136017000Y-96647000D01*
X136017000Y-97746250D01*
X136175750Y-97905000D01*
X136766309Y-97905000D01*
X136999698Y-97808327D01*
X137178327Y-97629699D01*
X137275000Y-97396310D01*
X137275000Y-97323381D01*
X137644436Y-97693461D01*
X138153298Y-97904759D01*
X138704285Y-97905240D01*
X139213515Y-97694831D01*
X139603461Y-97305564D01*
X139699976Y-97073130D01*
X139795169Y-97303515D01*
X140184436Y-97693461D01*
X140693298Y-97904759D01*
X141244285Y-97905240D01*
X141753515Y-97694831D01*
X142143461Y-97305564D01*
X142239976Y-97073130D01*
X142335169Y-97303515D01*
X142724436Y-97693461D01*
X143233298Y-97904759D01*
X143784285Y-97905240D01*
X144293515Y-97694831D01*
X144683461Y-97305564D01*
X144779976Y-97073130D01*
X144875169Y-97303515D01*
X145115184Y-97543948D01*
X144189566Y-98469566D01*
X144008561Y-98740459D01*
X143945000Y-99060000D01*
X143945000Y-100205465D01*
X143720330Y-100355585D01*
X143510000Y-100670366D01*
X143299670Y-100355585D01*
X142813489Y-100030729D01*
X142240000Y-99916655D01*
X141666511Y-100030729D01*
X141180330Y-100355585D01*
X140970000Y-100670366D01*
X140759670Y-100355585D01*
X140273489Y-100030729D01*
X139700000Y-99916655D01*
X139126511Y-100030729D01*
X138640330Y-100355585D01*
X138315474Y-100841766D01*
X138201400Y-101415255D01*
X138201400Y-101784745D01*
X138315474Y-102358234D01*
X138640330Y-102844415D01*
X139126511Y-103169271D01*
X139700000Y-103283345D01*
X140273489Y-103169271D01*
X140759670Y-102844415D01*
X140970000Y-102529634D01*
X141180330Y-102844415D01*
X141666511Y-103169271D01*
X142240000Y-103283345D01*
X142813489Y-103169271D01*
X143299670Y-102844415D01*
X143510000Y-102529634D01*
X143720330Y-102844415D01*
X144206511Y-103169271D01*
X144780000Y-103283345D01*
X145353489Y-103169271D01*
X145839670Y-102844415D01*
X146050000Y-102529634D01*
X146260330Y-102844415D01*
X146746511Y-103169271D01*
X147320000Y-103283345D01*
X147893489Y-103169271D01*
X148379670Y-102844415D01*
X148590000Y-102529634D01*
X148800330Y-102844415D01*
X149286511Y-103169271D01*
X149860000Y-103283345D01*
X150433489Y-103169271D01*
X150919670Y-102844415D01*
X151130000Y-102529634D01*
X151340330Y-102844415D01*
X151826511Y-103169271D01*
X152400000Y-103283345D01*
X152973489Y-103169271D01*
X153459670Y-102844415D01*
X153670000Y-102529634D01*
X153880330Y-102844415D01*
X154366511Y-103169271D01*
X154940000Y-103283345D01*
X155513489Y-103169271D01*
X155999670Y-102844415D01*
X156210000Y-102529634D01*
X156420330Y-102844415D01*
X156906511Y-103169271D01*
X157480000Y-103283345D01*
X158053489Y-103169271D01*
X158539670Y-102844415D01*
X158554500Y-102822220D01*
X158618073Y-102975698D01*
X158796701Y-103154327D01*
X159030090Y-103251000D01*
X159734250Y-103251000D01*
X159893000Y-103092250D01*
X159893000Y-101727000D01*
X160147000Y-101727000D01*
X160147000Y-103092250D01*
X160305750Y-103251000D01*
X161009910Y-103251000D01*
X161243299Y-103154327D01*
X161421927Y-102975698D01*
X161518600Y-102742309D01*
X161518600Y-101885750D01*
X161359850Y-101727000D01*
X160147000Y-101727000D01*
X159893000Y-101727000D01*
X159873000Y-101727000D01*
X159873000Y-101473000D01*
X159893000Y-101473000D01*
X159893000Y-100107750D01*
X160147000Y-100107750D01*
X160147000Y-101473000D01*
X161359850Y-101473000D01*
X161518600Y-101314250D01*
X161518600Y-100457691D01*
X161421927Y-100224302D01*
X161243299Y-100045673D01*
X161009910Y-99949000D01*
X160305750Y-99949000D01*
X160147000Y-100107750D01*
X159893000Y-100107750D01*
X159734250Y-99949000D01*
X159041868Y-99949000D01*
X159095868Y-99895000D01*
X166370000Y-99895000D01*
X166689541Y-99831439D01*
X166960434Y-99650434D01*
X169065212Y-97545656D01*
X169064587Y-98262325D01*
X169426916Y-99139229D01*
X170097242Y-99810726D01*
X170973513Y-100174585D01*
X171922325Y-100175413D01*
X172799229Y-99813084D01*
X173470726Y-99142758D01*
X173834585Y-98266487D01*
X173835413Y-97317675D01*
X173473084Y-96440771D01*
X172802758Y-95769274D01*
X171926487Y-95405415D01*
X171206082Y-95404786D01*
X173065868Y-93545000D01*
X173990000Y-93545000D01*
X174309541Y-93481439D01*
X174580434Y-93300434D01*
X176151728Y-91729140D01*
X176213341Y-91754724D01*
X176843893Y-91755275D01*
X177426657Y-91514481D01*
X177872914Y-91069003D01*
X178114724Y-90486659D01*
X178115275Y-89856107D01*
X177874481Y-89273343D01*
X177776971Y-89175663D01*
X177981441Y-89044090D01*
X178126431Y-88831890D01*
X178177440Y-88580000D01*
X178177440Y-86680000D01*
X178133162Y-86444683D01*
X177994090Y-86228559D01*
X177781890Y-86083569D01*
X177530000Y-86032560D01*
X175530000Y-86032560D01*
X175294683Y-86076838D01*
X175078559Y-86215910D01*
X174933569Y-86428110D01*
X174882560Y-86680000D01*
X174882560Y-88580000D01*
X174926838Y-88815317D01*
X175065910Y-89031441D01*
X175278110Y-89176431D01*
X175281192Y-89177055D01*
X175187086Y-89270997D01*
X174945276Y-89853341D01*
X174944725Y-90483893D01*
X174971190Y-90547942D01*
X173644132Y-91875000D01*
X172720000Y-91875000D01*
X172400459Y-91938561D01*
X172129566Y-92119566D01*
X169745000Y-94504132D01*
X169745000Y-91539957D01*
X169806657Y-91514481D01*
X170252914Y-91069003D01*
X170494724Y-90486659D01*
X170495275Y-89856107D01*
X170254481Y-89273343D01*
X170156971Y-89175663D01*
X170361441Y-89044090D01*
X170506431Y-88831890D01*
X170557440Y-88580000D01*
X170557440Y-86680000D01*
X170513162Y-86444683D01*
X170374090Y-86228559D01*
X170161890Y-86083569D01*
X169910000Y-86032560D01*
X167910000Y-86032560D01*
X167674683Y-86076838D01*
X167458559Y-86215910D01*
X167313569Y-86428110D01*
X167262560Y-86680000D01*
X167262560Y-88580000D01*
X167306838Y-88815317D01*
X167445910Y-89031441D01*
X167658110Y-89176431D01*
X167661192Y-89177055D01*
X167567086Y-89270997D01*
X167325276Y-89853341D01*
X167324725Y-90483893D01*
X167565519Y-91066657D01*
X168010997Y-91512914D01*
X168075000Y-91539490D01*
X168075000Y-94904132D01*
X166024132Y-96955000D01*
X165215000Y-96955000D01*
X165215000Y-96805750D01*
X165056250Y-96647000D01*
X163957000Y-96647000D01*
X163957000Y-96667000D01*
X163703000Y-96667000D01*
X163703000Y-96647000D01*
X163683000Y-96647000D01*
X163683000Y-96393000D01*
X163703000Y-96393000D01*
X163703000Y-95293750D01*
X163957000Y-95293750D01*
X163957000Y-96393000D01*
X165056250Y-96393000D01*
X165215000Y-96234250D01*
X165215000Y-95643690D01*
X165118327Y-95410301D01*
X164939698Y-95231673D01*
X164706309Y-95135000D01*
X164115750Y-95135000D01*
X163957000Y-95293750D01*
X163703000Y-95293750D01*
X163544250Y-95135000D01*
X162953691Y-95135000D01*
X162720302Y-95231673D01*
X162541673Y-95410301D01*
X162445000Y-95643690D01*
X162445000Y-95716619D01*
X162075564Y-95346539D01*
X161566702Y-95135241D01*
X161015715Y-95134760D01*
X160506485Y-95345169D01*
X160116539Y-95734436D01*
X160020024Y-95966870D01*
X159924831Y-95736485D01*
X159535564Y-95346539D01*
X159026702Y-95135241D01*
X158475715Y-95134760D01*
X157966485Y-95345169D01*
X157576539Y-95734436D01*
X157480024Y-95966870D01*
X157384831Y-95736485D01*
X156995564Y-95346539D01*
X156486702Y-95135241D01*
X155935715Y-95134760D01*
X155426485Y-95345169D01*
X155036539Y-95734436D01*
X154940024Y-95966870D01*
X154844831Y-95736485D01*
X154455564Y-95346539D01*
X153946702Y-95135241D01*
X153395715Y-95134760D01*
X152886485Y-95345169D01*
X152496539Y-95734436D01*
X152285241Y-96243298D01*
X152284760Y-96794285D01*
X152495169Y-97303515D01*
X152884436Y-97693461D01*
X153393298Y-97904759D01*
X153944285Y-97905240D01*
X154453515Y-97694831D01*
X154843461Y-97305564D01*
X154939976Y-97073130D01*
X155035169Y-97303515D01*
X155424436Y-97693461D01*
X155933298Y-97904759D01*
X156184154Y-97904978D01*
X154349566Y-99739566D01*
X154168561Y-100010459D01*
X154133569Y-100186376D01*
X153880330Y-100355585D01*
X153670000Y-100670366D01*
X153459670Y-100355585D01*
X153235000Y-100205465D01*
X153235000Y-99060000D01*
X153171439Y-98740459D01*
X152990434Y-98469566D01*
X152719541Y-98288561D01*
X152400000Y-98225000D01*
X151965000Y-98225000D01*
X151965000Y-95595868D01*
X156555868Y-91005000D01*
X159920043Y-91005000D01*
X159945519Y-91066657D01*
X160390997Y-91512914D01*
X160973341Y-91754724D01*
X161603893Y-91755275D01*
X162186657Y-91514481D01*
X162632914Y-91069003D01*
X162874724Y-90486659D01*
X162875275Y-89856107D01*
X162634481Y-89273343D01*
X162536971Y-89175663D01*
X162741441Y-89044090D01*
X162886431Y-88831890D01*
X162937440Y-88580000D01*
X162937440Y-86680000D01*
X162893162Y-86444683D01*
X162754090Y-86228559D01*
X162541890Y-86083569D01*
X162290000Y-86032560D01*
X160290000Y-86032560D01*
X160054683Y-86076838D01*
X159838559Y-86215910D01*
X159693569Y-86428110D01*
X159642560Y-86680000D01*
X159642560Y-88580000D01*
X159686838Y-88815317D01*
X159825910Y-89031441D01*
X160038110Y-89176431D01*
X160041192Y-89177055D01*
X159947086Y-89270997D01*
X159920510Y-89335000D01*
X156210000Y-89335000D01*
X155890459Y-89398561D01*
X155619566Y-89579566D01*
X155255198Y-89943934D01*
X155255275Y-89856107D01*
X155014481Y-89273343D01*
X154916971Y-89175663D01*
X155121441Y-89044090D01*
X155266431Y-88831890D01*
X155317440Y-88580000D01*
X155317440Y-86680000D01*
X155273162Y-86444683D01*
X155134090Y-86228559D01*
X154921890Y-86083569D01*
X154670000Y-86032560D01*
X152670000Y-86032560D01*
X152434683Y-86076838D01*
X152218559Y-86215910D01*
X152073569Y-86428110D01*
X152022560Y-86680000D01*
X152022560Y-88580000D01*
X152066838Y-88815317D01*
X152205910Y-89031441D01*
X152418110Y-89176431D01*
X152421192Y-89177055D01*
X152327086Y-89270997D01*
X152085276Y-89853341D01*
X152084725Y-90483893D01*
X152325519Y-91066657D01*
X152770997Y-91512914D01*
X153353341Y-91754724D01*
X153444328Y-91754804D01*
X150539566Y-94659566D01*
X150358561Y-94930459D01*
X150295000Y-95250000D01*
X150295000Y-99060000D01*
X150358561Y-99379541D01*
X150539566Y-99650434D01*
X150810459Y-99831439D01*
X151130000Y-99895000D01*
X151565000Y-99895000D01*
X151565000Y-100205465D01*
X151340330Y-100355585D01*
X151130000Y-100670366D01*
X150919670Y-100355585D01*
X150433489Y-100030729D01*
X149860000Y-99916655D01*
X149286511Y-100030729D01*
X148800330Y-100355585D01*
X148590000Y-100670366D01*
X148379670Y-100355585D01*
X147893489Y-100030729D01*
X147320000Y-99916655D01*
X146746511Y-100030729D01*
X146260330Y-100355585D01*
X146050000Y-100670366D01*
X145839670Y-100355585D01*
X145615000Y-100205465D01*
X145615000Y-99405868D01*
X146395868Y-98625000D01*
X148590000Y-98625000D01*
X148909541Y-98561439D01*
X149180434Y-98380434D01*
X149361439Y-98109541D01*
X149425000Y-97790000D01*
X149425000Y-93980000D01*
X149361439Y-93660459D01*
X149180434Y-93389566D01*
X148909541Y-93208561D01*
X148590000Y-93145000D01*
X141315868Y-93145000D01*
X139506160Y-91335292D01*
X139772914Y-91069003D01*
X140014724Y-90486659D01*
X140015275Y-89856107D01*
X139774481Y-89273343D01*
X139676971Y-89175663D01*
X139881441Y-89044090D01*
X140026431Y-88831890D01*
X140077440Y-88580000D01*
X140077440Y-86680000D01*
X144402560Y-86680000D01*
X144402560Y-88580000D01*
X144446838Y-88815317D01*
X144585910Y-89031441D01*
X144798110Y-89176431D01*
X144801192Y-89177055D01*
X144707086Y-89270997D01*
X144465276Y-89853341D01*
X144464725Y-90483893D01*
X144705519Y-91066657D01*
X145150997Y-91512914D01*
X145733341Y-91754724D01*
X146363893Y-91755275D01*
X146946657Y-91514481D01*
X147392914Y-91069003D01*
X147634724Y-90486659D01*
X147635275Y-89856107D01*
X147394481Y-89273343D01*
X147296971Y-89175663D01*
X147501441Y-89044090D01*
X147646431Y-88831890D01*
X147697440Y-88580000D01*
X147697440Y-86680000D01*
X147653162Y-86444683D01*
X147514090Y-86228559D01*
X147301890Y-86083569D01*
X147050000Y-86032560D01*
X145050000Y-86032560D01*
X144814683Y-86076838D01*
X144598559Y-86215910D01*
X144453569Y-86428110D01*
X144402560Y-86680000D01*
X140077440Y-86680000D01*
X140033162Y-86444683D01*
X139894090Y-86228559D01*
X139681890Y-86083569D01*
X139430000Y-86032560D01*
X137430000Y-86032560D01*
X137194683Y-86076838D01*
X136978559Y-86215910D01*
X136833569Y-86428110D01*
X136782560Y-86680000D01*
X136782560Y-88580000D01*
X136826838Y-88815317D01*
X136965910Y-89031441D01*
X137178110Y-89176431D01*
X137181192Y-89177055D01*
X137087086Y-89270997D01*
X136845276Y-89853341D01*
X136844725Y-90483893D01*
X137085519Y-91066657D01*
X137530997Y-91512914D01*
X137616572Y-91548448D01*
X137658561Y-91759541D01*
X137802392Y-91974799D01*
X137839566Y-92030434D01*
X140379566Y-94570434D01*
X140650459Y-94751439D01*
X140970000Y-94815000D01*
X147755000Y-94815000D01*
X147755000Y-96955000D01*
X147369028Y-96955000D01*
X147434759Y-96796702D01*
X147435240Y-96245715D01*
X147224831Y-95736485D01*
X146835564Y-95346539D01*
X146326702Y-95135241D01*
X145775715Y-95134760D01*
X145266485Y-95345169D01*
X144876539Y-95734436D01*
X144780024Y-95966870D01*
X144684831Y-95736485D01*
X144295564Y-95346539D01*
X143786702Y-95135241D01*
X143235715Y-95134760D01*
X142726485Y-95345169D01*
X142336539Y-95734436D01*
X142240024Y-95966870D01*
X142144831Y-95736485D01*
X141755564Y-95346539D01*
X141246702Y-95135241D01*
X140695715Y-95134760D01*
X140186485Y-95345169D01*
X139796539Y-95734436D01*
X139700024Y-95966870D01*
X139604831Y-95736485D01*
X139265000Y-95396061D01*
X139265000Y-95250000D01*
X139201439Y-94930459D01*
X139020434Y-94659566D01*
X136480434Y-92119566D01*
X136209541Y-91938561D01*
X135890000Y-91875000D01*
X129885868Y-91875000D01*
X125050434Y-87039566D01*
X124837440Y-86897248D01*
X124837440Y-86680000D01*
X129162560Y-86680000D01*
X129162560Y-88580000D01*
X129206838Y-88815317D01*
X129345910Y-89031441D01*
X129558110Y-89176431D01*
X129561192Y-89177055D01*
X129467086Y-89270997D01*
X129225276Y-89853341D01*
X129224725Y-90483893D01*
X129465519Y-91066657D01*
X129910997Y-91512914D01*
X130493341Y-91754724D01*
X131123893Y-91755275D01*
X131706657Y-91514481D01*
X132152914Y-91069003D01*
X132394724Y-90486659D01*
X132395275Y-89856107D01*
X132154481Y-89273343D01*
X132056971Y-89175663D01*
X132261441Y-89044090D01*
X132406431Y-88831890D01*
X132457440Y-88580000D01*
X132457440Y-86680000D01*
X132413162Y-86444683D01*
X132274090Y-86228559D01*
X132061890Y-86083569D01*
X131810000Y-86032560D01*
X129810000Y-86032560D01*
X129574683Y-86076838D01*
X129358559Y-86215910D01*
X129213569Y-86428110D01*
X129162560Y-86680000D01*
X124837440Y-86680000D01*
X124793162Y-86444683D01*
X124654090Y-86228559D01*
X124441890Y-86083569D01*
X124190000Y-86032560D01*
X122190000Y-86032560D01*
X121954683Y-86076838D01*
X121738559Y-86215910D01*
X121593569Y-86428110D01*
X121542560Y-86680000D01*
X117814785Y-86680000D01*
X118036067Y-86435346D01*
X120301692Y-86008461D01*
X178670990Y-86008461D01*
X180944780Y-86455746D01*
M02*
