M48
;DRILL file {KiCad 4.0.2+dfsg1-stable} date dom 10 sep 2017 20:46:03 CEST
;FORMAT={2:4/ absolute / inch / suppress trailing zeros}
FMAT,2
INCH,LZ
T1C0.024
T2C0.039
T3C0.040
T4C0.138
%
G90
G05
M72
T1
X0535Y-038
X0545Y-038
X0555Y-038
X0565Y-038
X0575Y-038
X0605Y-038
X0615Y-038
X0625Y-038
X0635Y-038
X0645Y-038
T2
X0485Y-0345
X0485Y-0355
X0515Y-0345
X0515Y-0355
X0545Y-0345
X0545Y-0355
X0575Y-0345
X0575Y-0355
X0605Y-0345
X0605Y-0355
X0635Y-0345
X0635Y-0355
X0665Y-0345
X0665Y-0355
X0695Y-0345
X0695Y-0355
T3
X055Y-04
X056Y-04
X057Y-04
X058Y-04
X059Y-04
X06Y-04
X061Y-04
X062Y-04
X063Y-04
T4
X0505Y-0385
X0675Y-0385
T0
M30
